<?xml version="1.0" standalone="no"?>
<!DOCTYPE svg PUBLIC "-//W3C//DTD SVG 20010904//EN"
 "http://www.w3.org/TR/2001/REC-SVG-20010904/DTD/svg10.dtd">
<svg version="1.0" xmlns="http://www.w3.org/2000/svg"
 width="500.000000pt" height="500.000000pt" viewBox="0 0 500.000000 500.000000"
 preserveAspectRatio="xMidYMid meet">

<g transform="translate(0.000000,500.000000) scale(0.100000,-0.100000)"
fill="#000000" stroke="none">
<path d="M1967 3892 c-42 -46 -4 -92 75 -92 74 0 114 53 70 93 -27 24 -123 23
-145 -1z"/>
<path d="M2230 3890 c-24 -24 -25 -39 -6 -66 13 -17 31 -20 162 -24 l148 -5
15 -27 c14 -25 14 -29 -5 -55 l-21 -28 -278 -3 c-242 -2 -281 -4 -297 -19 -22
-20 -23 -46 -2 -67 12 -13 40 -16 142 -16 144 0 172 -10 172 -60 0 -59 -3 -60
-321 -60 -276 0 -290 -1 -309 -20 -25 -25 -26 -52 -2 -73 16 -15 48 -17 245
-17 214 0 228 -1 247 -20 11 -11 20 -29 20 -40 0 -11 -9 -29 -20 -40 -18 -18
-33 -20 -188 -20 -154 0 -170 -2 -186 -19 -10 -11 -16 -30 -14 -42 6 -43 37
-49 275 -49 244 0 253 -2 253 -60 0 -50 -28 -60 -172 -60 -102 0 -130 -3 -142
-16 -20 -20 -20 -48 0 -68 13 -14 54 -16 290 -16 l275 0 24 -25 c29 -28 31
-42 9 -73 -14 -21 -22 -22 -155 -22 -126 0 -141 -2 -159 -20 -11 -11 -20 -27
-20 -35 0 -8 9 -24 20 -35 20 -20 33 -20 563 -20 470 0 551 2 597 16 100 30
172 93 219 194 26 55 26 55 29 370 2 211 0 335 -8 375 -23 117 -90 202 -199
254 l-56 26 -562 3 c-554 3 -562 3 -583 -18z m793 -219 c74 -29 164 -111 205
-189 111 -209 28 -461 -187 -564 -54 -26 -82 -33 -152 -36 -183 -9 -327 74
-406 237 -25 51 -28 66 -28 166 0 99 3 116 28 169 52 112 135 187 251 228 70
25 208 20 289 -11z"/>
<path d="M2813 3504 c-11 -71 -20 -130 -18 -132 2 -2 327 118 334 125 3 2 -11
20 -30 39 -45 48 -129 85 -204 91 l-61 5 -21 -128z"/>
<path d="M2725 3601 c-48 -22 -124 -88 -148 -129 l-17 -30 96 -82 c52 -45 97
-80 99 -78 5 4 55 299 55 322 0 21 -34 20 -85 -3z"/>
<path d="M3030 3439 c-58 -22 -109 -44 -113 -48 -4 -4 53 -56 128 -116 75 -59
139 -105 142 -102 12 12 19 133 11 181 -10 52 -43 127 -56 125 -4 0 -54 -18
-112 -40z"/>
<path d="M2546 3412 c-3 -5 -9 -34 -14 -65 -11 -67 -1 -139 27 -201 l20 -45
120 41 c67 23 121 44 121 48 0 4 -53 52 -117 106 -153 128 -150 126 -157 116z"/>
<path d="M2950 3168 c-12 -73 -26 -150 -30 -170 -7 -35 -6 -38 14 -38 28 1
102 35 144 67 36 27 92 99 92 117 0 9 -181 156 -193 156 -2 0 -14 -60 -27
-132z"/>
<path d="M2770 3149 c-90 -33 -167 -63 -170 -66 -9 -9 74 -75 125 -99 31 -14
74 -25 110 -26 l59 -3 21 128 c12 70 21 127 21 126 -1 0 -75 -27 -166 -60z"/>
<path d="M1466 3658 c-21 -30 -20 -44 4 -68 18 -18 33 -20 160 -20 127 0 142
2 160 20 24 24 25 38 4 68 -14 21 -22 22 -164 22 -142 0 -150 -1 -164 -22z"/>
<path d="M1380 3440 c-24 -24 -25 -38 -4 -68 13 -19 24 -22 79 -22 53 0 66 3
75 19 29 55 -3 91 -78 91 -39 0 -57 -5 -72 -20z"/>
<path d="M1457 3212 c-23 -26 -21 -58 5 -76 34 -24 169 -22 191 2 21 23 22 56
1 76 -24 25 -175 23 -197 -2z"/>
<path d="M1644 2975 c-32 -50 18 -93 97 -82 64 8 85 39 59 88 -9 16 -22 19
-75 19 -57 0 -66 -3 -81 -25z"/>
<path d="M1600 2760 c-25 -25 -26 -52 -2 -73 16 -15 50 -17 265 -17 210 0 248
2 261 16 21 21 20 57 -2 77 -16 15 -49 17 -260 17 -229 0 -243 -1 -262 -20z"/>
<path d="M1970 2265 l0 -65 95 0 96 0 -3 63 -3 62 -92 3 -93 3 0 -66z"/>
<path d="M3190 1970 l0 -360 90 0 90 0 0 360 0 360 -90 0 -90 0 0 -360z"/>
<path d="M250 1955 l0 -345 80 0 80 0 2 213 3 212 17 -50 c9 -27 28 -89 43
-137 l26 -88 63 0 63 0 39 131 39 132 3 -207 2 -206 85 0 85 0 0 345 0 346
-102 -3 -103 -3 -36 -120 c-21 -66 -45 -146 -54 -178 -9 -33 -19 -56 -22 -53
-3 2 -29 83 -58 178 l-53 173 -101 3 -101 3 0 -346z"/>
<path d="M2720 1955 l0 -345 95 0 95 0 0 130 0 130 95 0 95 0 0 65 0 65 -95 0
-95 0 0 80 0 80 110 0 110 0 0 70 0 70 -205 0 -205 0 0 -345z"/>
<path d="M4203 2131 c-17 -11 -36 -28 -42 -38 -9 -15 -10 -13 -11 15 l0 32
-90 0 -90 0 0 -265 0 -265 90 0 90 0 0 154 c0 149 8 202 33 218 7 4 31 8 55 8
l42 0 0 80 c0 76 -1 80 -22 80 -13 0 -37 -9 -55 -19z"/>
<path d="M1014 2121 c-46 -28 -54 -64 -54 -250 0 -179 5 -199 53 -235 25 -18
45 -21 151 -24 142 -4 184 7 216 60 18 30 20 50 20 201 0 258 -8 267 -222 267
-113 0 -138 -3 -164 -19z m204 -243 l3 -138 -41 0 -40 0 0 133 c0 74 3 137 7
141 4 4 21 6 38 4 l30 -3 3 -137z"/>
<path d="M1442 2128 c3 -7 34 -127 69 -265 l64 -253 107 0 c101 0 107 1 114
22 3 12 35 131 69 265 l62 243 -87 0 c-61 0 -89 -4 -93 -12 -2 -7 -17 -82 -32
-165 -16 -84 -30 -151 -32 -150 -2 3 -63 312 -63 323 0 2 -41 4 -91 4 -69 0
-90 -3 -87 -12z"/>
<path d="M1970 1875 l0 -265 90 0 90 0 0 265 0 265 -90 0 -90 0 0 -265z"/>
<path d="M2264 2012 l64 -128 -54 -119 c-78 -173 -81 -156 22 -153 l87 3 23
69 c13 38 25 71 28 73 2 2 16 -30 31 -72 l28 -75 88 0 c49 0 89 2 89 5 0 2
-29 65 -64 138 l-63 134 58 127 58 127 -91 -3 -90 -3 -22 -70 -23 -70 -22 73
-22 72 -94 0 -95 0 64 -128z"/>
<path d="M3514 2126 c-52 -23 -64 -71 -63 -249 0 -168 9 -209 52 -241 26 -19
42 -21 166 -21 218 0 221 4 221 260 0 257 -7 265 -217 265 -85 -1 -139 -5
-159 -14z m194 -249 l3 -138 -38 3 -38 3 -3 124 c-1 69 0 131 3 139 3 8 17 12
37 10 l33 -3 3 -138z"/>
<path d="M4391 2127 c-13 -6 -34 -25 -45 -40 -19 -26 -21 -44 -24 -190 -4
-202 4 -232 68 -264 38 -20 60 -23 155 -23 86 0 119 5 152 19 49 23 62 44 70
111 l6 50 -86 0 c-81 0 -86 -1 -89 -22 -4 -30 -48 -46 -83 -30 -21 10 -25 18
-25 52 l0 40 141 0 141 0 -3 114 c-4 97 -7 119 -25 143 -35 46 -58 53 -199 53
-84 0 -139 -5 -154 -13z m203 -123 c3 -9 6 -29 6 -45 0 -29 -1 -29 -55 -29
-54 0 -55 0 -55 29 0 52 9 61 55 61 30 0 45 -5 49 -16z"/>
</g>
</svg>
